# xmcd
#
# Track frame offsets:
#	150
#	12901
#	27295
#	37904
#	52250
#	70810
#	83838
#	94310
#	109077
#	123031
#	141937
#	158678
#	169968
#	183290
#	193302
#	204950
#	217656
#	226972
#	240172
#	259747
#
# Disc length: 3604 seconds
#
# Revision: 0
# Processed by: cddbd v1.4PL0 Copyright (c) Steve Scherf et al.
# Submitted via: EasyCDDAExtractor 4.6.9.1
#
DISCID=070e1214
DTITLE=RAYMOND ROULEAU  - LE CHEMIN TANT DESIRER
DYEAR=1900
DGENRE=
TTITLE0=Quand Revien Le Printemp
TTITLE1=Par Cette Anneau
TTITLE2=La Cle Dans La Boite Aux Lettres
TTITLE3=Ma Meillieure Amie
TTITLE4=En Avant Les Quebecois
TTITLE5=Le Chemin Tant Desirer
TTITLE6=La Fille Qui Crea Le Baiser
TTITLE7=Le Chauffeur De Taxi
TTITLE8=Un Monde D'Amour
TTITLE9=Le Country Qurbecois
TTITLE10=Unie Pour La Vie
TTITLE11=La Fille Japonnaise
TTITLE12=Tu Etait A La Gare
TTITLE13=Bonne Nuit Ma Cherie
TTITLE14=Bonheur Impossible Sans Toi
TTITLE15=Adieu Familiale
TTITLE16=Peu Importe
TTITLE17=Un Triste Souvenir
TTITLE18=Mille et Une Caresse
TTITLE19=Mon Coeur Bat De Joie
EXTD=
EXTT0=
EXTT1=
EXTT2=
EXTT3=
EXTT4=
EXTT5=
EXTT6=
EXTT7=
EXTT8=
EXTT9=
EXTT10=
EXTT11=
EXTT12=
EXTT13=
EXTT14=
EXTT15=
EXTT16=
EXTT17=
EXTT18=
EXTT19=
PLAYORDER=
